<svg width="38" height="29" viewBox="0 0 38 29" fill="none" xmlns="http://www.w3.org/2000/svg">
<path fill-rule="evenodd" clip-rule="evenodd" d="M0 26.1008C0 26.1008 13.655 6.6738 37.2988 2.70557C37.2988 2.70557 42.6302 36.4831 0 26.1008Z" fill="#D2A03B"/>
<path fill-rule="evenodd" clip-rule="evenodd" d="M1.64038 27.3087C1.64038 27.3087 13.1044 6.51483 36.1773 0C36.1773 0 45.1461 32.9986 1.64038 27.3092" fill="#3F4945"/>
<path d="M5.58036 9.39336C6.19768 9.65163 6.68855 10.1425 6.94681 10.7598C7.12561 11.1829 7.18811 11.6462 7.12785 12.1015C7.06758 12.5569 6.88675 12.9879 6.60405 13.35C6.43253 13.5671 6.22778 13.7557 5.99739 13.9089C5.7653 14.0638 5.50849 14.1779 5.23802 14.2463L7.24226 16.673H5.33346L2.88521 13.7085V16.673H1.41833V9.19294H4.57201C4.91786 9.1904 5.26058 9.25861 5.57911 9.39336H5.58036ZM4.04377 13.4027C4.36028 13.4078 4.67109 13.3182 4.9362 13.1452C5.20132 12.9722 5.4086 12.7239 5.53139 12.4321C5.59907 12.3 5.6437 12.1572 5.66335 12.0101C5.68103 11.8772 5.68284 11.7426 5.66874 11.6092C5.64948 11.3815 5.5874 11.1595 5.48575 10.9548C5.38672 10.7551 5.2528 10.5747 5.09029 10.422C4.92761 10.2702 4.73787 10.1503 4.53093 10.0685C4.31598 9.984 4.08675 9.94173 3.85579 9.94401H2.88521V12.9296C3.03809 13.0814 3.21942 13.2015 3.4188 13.283C3.61818 13.3645 3.83169 13.4059 4.04709 13.4048" fill="#D2A03B"/>
<path d="M9.5212 13.7193C9.52051 13.567 9.55087 13.4162 9.61041 13.2761C9.66886 13.1381 9.75339 13.0127 9.85938 12.9068C9.96611 12.8006 10.0912 12.7147 10.2287 12.6533C10.3714 12.5896 10.526 12.5573 10.6822 12.5582H13.4031V13.3076H10.576C10.2441 13.3076 10.0031 13.4027 9.85316 13.5927C9.69634 13.7959 9.59304 14.0351 9.55273 14.2886C9.50271 14.5723 9.48489 14.8607 9.49962 15.1484C9.51373 15.4477 9.52078 15.7064 9.52078 15.9243H13.4031V16.6713H8.05432V9.19336H13.4031V9.94028H9.52078V13.7164L9.5212 13.7193Z" fill="#D2A03B"/>
<path d="M20.1603 12.5583V16.673H16.7837C16.4416 16.6746 16.1027 16.6064 15.7878 16.4726C15.1709 16.2141 14.6803 15.7235 14.4218 15.1065C14.287 14.7879 14.2188 14.445 14.2214 14.099V11.7674C14.2188 11.4214 14.287 11.0785 14.4218 10.7599C14.6797 10.1425 15.1705 9.65153 15.7878 9.3934C16.1027 9.25965 16.4416 9.19159 16.7837 9.19339H20.1603V9.94032H17.5012C17.2587 9.93847 17.0185 9.98708 16.7958 10.0831C16.3606 10.2696 16.0147 10.6175 15.8306 11.0536C15.7335 11.279 15.684 11.522 15.6854 11.7674V14.099C15.6836 14.3436 15.732 14.586 15.8277 14.8111C15.9193 15.028 16.0519 15.2252 16.2182 15.392C16.3837 15.557 16.5788 15.6893 16.7933 15.7821C17.016 15.8779 17.2562 15.9264 17.4987 15.9244H18.6913V12.5583H20.1603Z" fill="#D2A03B"/>
<path d="M20.9731 16.6729V16.1139C21.6412 15.0727 22.32 14.0422 23.0093 13.0225C23.6987 12.0028 24.3844 10.9759 25.0663 9.94187H21.0997V9.19287H26.8286V9.94187H26.8182L22.8616 15.9243H26.8286V16.6712L20.9731 16.6729Z" fill="#D2A03B"/>
<path d="M30.9442 9.42525C31.2435 9.58017 31.4634 9.85791 31.604 10.2585C31.9841 11.3274 32.3585 12.3947 32.7272 13.4603C33.096 14.5259 33.4706 15.5968 33.851 16.6729H32.1841L31.6355 15.0587H29.4831C29.2164 15.0587 29.002 15.1063 28.8399 15.2015C28.6808 15.2936 28.5453 15.4215 28.4441 15.5749C28.339 15.7357 28.2553 15.9095 28.1951 16.0919C28.132 16.282 28.0688 16.4756 28.0055 16.6729H27.2888L29.9051 9.19287C30.2988 9.19287 30.6446 9.27033 30.9425 9.42525H30.9442ZM30.1566 10.6805L28.6183 14.8761C28.7211 14.7022 28.8685 14.5589 29.0453 14.4612C29.2244 14.3614 29.4263 14.31 29.6312 14.3118H31.3828L30.1566 10.6805Z" fill="#D2A03B"/>
<path d="M19.7798 27.8785C25.7738 29.9553 33.3372 26.7328 31.772 19.5906C31.2164 22.4322 24.8232 22.3575 26.0821 27.3502C24.0796 28.4594 21.8002 28.127 19.781 27.8785" fill="#D2A03B"/>
<path d="M27.5067 27.9299C28.8761 30.249 33.4373 28.8926 32.5567 22.9363C31.8003 25.6252 29.7425 27.3348 27.5067 27.9299Z" fill="#3F4945"/>
<path d="M15.4023 20.8968C15.4051 21.0963 15.3659 21.2942 15.2874 21.4777C15.1402 21.8164 14.8713 22.0875 14.5338 22.2375C14.1987 22.3897 13.8191 22.4125 13.4682 22.3014C13.2792 22.2417 13.105 22.1427 12.957 22.0109V23.7122H12.1167V19.42H13.9263C14.1248 19.4184 14.3216 19.4575 14.5044 19.5349C14.8587 19.683 15.1404 19.9645 15.2886 20.3188C15.3658 20.5016 15.4049 20.6983 15.4036 20.8968H15.4023ZM14.1251 20.0424C13.9496 19.914 13.7371 19.8462 13.5197 19.849H12.957V21.5619C13.045 21.6462 13.1474 21.7138 13.2595 21.7615C13.3743 21.8104 13.4979 21.8351 13.6226 21.8342C13.7461 21.8353 13.8686 21.8116 13.9828 21.7644C14.0927 21.7189 14.1926 21.652 14.2766 21.5678C14.4191 21.435 14.5128 21.2582 14.5425 21.0657C14.5724 20.8893 14.5581 20.7082 14.501 20.5387C14.4305 20.3384 14.3001 20.1646 14.1276 20.0407" fill="white"/>
<path d="M16.7144 23.2819H19.1594V23.7114H15.8729V19.4199H16.7144V23.2819Z" fill="white"/>
<path d="M22.0093 22.2284V19.4199H22.8508V22.2284C22.8511 22.4235 22.813 22.6168 22.7387 22.7973C22.6643 22.9787 22.5542 23.1433 22.4151 23.2815C22.3052 23.3885 22.1768 23.4746 22.0362 23.5359C21.8795 23.6062 21.715 23.6579 21.5462 23.6898C21.1883 23.7584 20.8206 23.7584 20.4627 23.6898C20.2939 23.6579 20.1294 23.6062 19.9727 23.5359C19.8322 23.4745 19.704 23.3884 19.5942 23.2815C19.4594 23.1458 19.3515 22.9857 19.2764 22.8097C19.1972 22.6263 19.1569 22.4285 19.1581 22.2288V19.4199H20.0009V22.2288C20.0009 22.4587 20.0504 22.6493 20.1494 22.8006C20.2417 22.9454 20.3705 23.0634 20.5229 23.1425C20.6727 23.2192 20.8393 23.2575 21.0076 23.2541C21.1755 23.2536 21.3411 23.2143 21.4914 23.1392C21.6449 23.0616 21.7741 22.9433 21.8648 22.7973C21.964 22.6441 22.013 22.4545 22.013 22.2284" fill="white"/>
<path d="M25.1783 21.1873C25.3235 21.2559 25.4667 21.3286 25.6078 21.4052C25.744 21.4782 25.8719 21.5656 25.9895 21.6658C26.1006 21.7601 26.1919 21.8752 26.2584 22.0048C26.3276 22.1458 26.36 22.3019 26.3526 22.4588C26.348 22.6652 26.2861 22.8664 26.1738 23.0397C26.0637 23.2083 25.9181 23.3509 25.7472 23.4576C25.5675 23.5686 25.3698 23.6474 25.163 23.6904C24.9472 23.7368 24.7248 23.744 24.5065 23.7115C24.2808 23.6781 24.0627 23.6054 23.8621 23.4966C23.6485 23.3806 23.4635 23.2184 23.3206 23.0219L23.8048 22.543C23.8374 22.6568 23.8907 22.7635 23.9621 22.858C24.0269 22.9434 24.1058 23.0172 24.1953 23.0762C24.2795 23.1313 24.3724 23.1718 24.47 23.1961C24.5649 23.2201 24.6627 23.2303 24.7605 23.2264C24.9078 23.2234 25.0523 23.1846 25.1812 23.1132C25.301 23.0517 25.4015 22.9583 25.4717 22.8434C25.5025 22.7921 25.5227 22.7352 25.531 22.6759C25.5393 22.6167 25.5357 22.5564 25.5202 22.4986C25.4898 22.3758 25.3859 22.2619 25.2086 22.1571C25.104 22.0965 24.986 22.035 24.8546 21.9724C24.7232 21.9099 24.59 21.8432 24.455 21.7724C24.3207 21.7023 24.1905 21.6246 24.065 21.5396C23.9432 21.4585 23.8318 21.3629 23.733 21.255C23.6388 21.1511 23.5659 21.0297 23.5185 20.8977C23.4694 20.7518 23.4552 20.5965 23.477 20.4442C23.4971 20.2574 23.5672 20.0795 23.6799 19.9292C23.7911 19.7843 23.9328 19.6656 24.0949 19.5815C24.2673 19.4927 24.4537 19.4343 24.6459 19.4088C24.8479 19.3807 25.0531 19.3848 25.2538 19.4209C25.4605 19.4581 25.6598 19.5281 25.8443 19.6284C26.0359 19.7327 26.2051 19.8737 26.3423 20.0433L25.8933 20.4852C25.849 20.3652 25.7798 20.2559 25.6904 20.1645C25.6028 20.0742 25.5005 19.9996 25.3879 19.9437C25.279 19.8902 25.1626 19.8535 25.0426 19.835C24.9312 19.8167 24.8175 19.8178 24.7065 19.8383C24.6053 19.8567 24.5104 19.9004 24.4306 19.9653C24.3508 20.0319 24.2964 20.1239 24.2766 20.2259C24.2426 20.3388 24.2512 20.4603 24.3007 20.5674C24.3524 20.6662 24.4246 20.7529 24.5123 20.8218C24.6115 20.9003 24.7192 20.9674 24.8335 21.0218L25.1783 21.1878" fill="white"/>
</svg>
